<?xml version="1.0" standalone="no"?>
<!DOCTYPE svg PUBLIC "-//W3C//DTD SVG 20010904//EN"
 "http://www.w3.org/TR/2001/REC-SVG-20010904/DTD/svg10.dtd">
<svg version="1.0" xmlns="http://www.w3.org/2000/svg"
 width="1920.000000pt" height="1080.000000pt" viewBox="0 0 1920.000000 1080.000000"
 preserveAspectRatio="xMidYMid meet">

<g transform="translate(0.000000,1080.000000) scale(0.100000,-0.100000)"
fill="#000000" stroke="none">
<path d="M10805 7311 c6 -10 132 -8 142 3 3 3 -28 6 -71 6 -44 0 -75 -4 -71
-9z"/>
<path d="M10990 7280 c0 -5 5 -10 10 -10 6 0 10 5 10 10 0 6 -4 10 -10 10 -5
0 -10 -4 -10 -10z"/>
<path d="M10700 7255 c0 -9 5 -15 11 -13 6 2 11 8 11 13 0 5 -5 11 -11 13 -6
2 -11 -4 -11 -13z"/>
<path d="M11030 7244 c0 -8 5 -12 10 -9 6 4 8 11 5 16 -9 14 -15 11 -15 -7z"/>
<path d="M10660 7209 c0 -11 5 -17 10 -14 6 3 10 13 10 21 0 8 -4 14 -10 14
-5 0 -10 -9 -10 -21z"/>
<path d="M11060 7191 c0 -11 5 -23 10 -26 6 -4 10 5 10 19 0 14 -4 26 -10 26
-5 0 -10 -9 -10 -19z"/>
<path d="M10662 7120 c0 -14 2 -19 5 -12 2 6 2 18 0 25 -3 6 -5 1 -5 -13z"/>
<path d="M11062 7070 c-2 -23 2 -40 8 -40 5 0 10 18 10 40 0 22 -4 40 -8 40
-4 0 -9 -18 -10 -40z"/>
<path d="M10660 7020 c0 -11 5 -20 10 -20 6 0 10 9 10 20 0 11 -4 20 -10 20
-5 0 -10 -9 -10 -20z"/>
<path d="M10700 6980 c0 -5 5 -10 11 -10 5 0 7 5 4 10 -3 6 -8 10 -11 10 -2 0
-4 -4 -4 -10z"/>
<path d="M10835 6921 c-8 -14 29 -23 61 -15 25 7 26 8 9 15 -28 11 -63 11 -70
0z"/>
<path d="M9280 6844 c-123 -18 -237 -38 -245 -44 -5 -4 -28 -10 -50 -14 -100
-17 -328 -127 -429 -207 -42 -33 -76 -62 -76 -64 0 -2 45 -33 101 -69 l100
-67 50 36 c57 41 177 102 259 132 111 41 172 54 307 65 115 10 159 9 263 -4
195 -24 317 -66 488 -167 48 -29 75 -39 88 -34 24 8 174 124 174 133 0 4 -10
12 -22 17 -13 6 -47 32 -76 57 -30 25 -58 46 -62 46 -5 0 -55 22 -112 48 -57
26 -121 53 -143 60 -22 6 -71 20 -110 31 -138 40 -386 62 -505 45z"/>
<path d="M9353 6395 c-18 -8 -38 -19 -45 -24 -29 -24 -147 -109 -203 -146 -33
-22 -109 -75 -170 -118 -60 -42 -118 -83 -129 -90 -10 -6 -47 -33 -82 -59 -35
-27 -67 -48 -71 -48 -13 -1 -59 -44 -78 -74 -17 -26 -17 -28 2 -54 29 -39 60
-52 129 -52 33 0 65 -5 72 -12 9 -9 12 -97 12 -334 0 -322 0 -323 22 -338 20
-14 93 -16 598 -16 435 0 579 3 588 12 9 9 12 98 12 339 0 249 3 329 13 337 6
5 47 12 89 14 64 3 81 7 102 27 36 34 34 75 -3 110 -16 15 -65 52 -110 82 -44
30 -82 63 -85 74 -3 11 -6 81 -6 155 0 174 -3 179 -100 178 -99 -1 -107 -9
-109 -114 -2 -75 -13 -71 -226 74 -143 97 -162 103 -222 77z"/>
<path d="M10464 6320 c-21 -16 -63 -45 -91 -65 -29 -19 -53 -39 -53 -44 0 -5
11 -22 23 -38 37 -44 101 -161 137 -248 24 -60 60 -250 60 -320 0 -173 -79
-419 -172 -538 -29 -36 -30 -39 -13 -57 10 -11 22 -20 27 -20 4 0 31 -16 58
-35 27 -19 53 -35 57 -35 3 0 15 -7 25 -16 14 -14 20 -14 33 -4 8 7 15 16 15
20 0 4 18 38 41 76 22 38 44 76 48 84 4 8 13 25 19 37 6 12 23 59 38 105 15
46 32 99 39 118 26 69 38 255 25 390 -6 69 -17 139 -24 155 -19 43 -56 158
-56 173 0 7 -16 38 -35 68 -19 30 -35 56 -35 58 0 7 -80 125 -98 147 -21 24
-22 24 -68 -11z"/>
<path d="M8266 6311 c-19 -21 -66 -103 -91 -158 -8 -17 -19 -34 -24 -37 -5 -3
-19 -38 -31 -78 -12 -40 -28 -86 -35 -103 -67 -148 -67 -523 0 -680 7 -16 24
-61 39 -100 14 -38 37 -88 50 -110 14 -22 35 -59 47 -82 12 -24 29 -43 36 -43
7 0 36 16 63 35 27 19 53 35 57 35 5 0 24 14 43 30 l35 29 -19 33 c-93 164
-130 270 -146 425 -21 202 19 390 120 564 23 41 49 82 58 91 8 10 12 24 9 31
-4 12 -180 137 -191 137 -2 0 -11 -9 -20 -19z"/>
<path d="M8613 4837 c-85 -49 -190 -123 -183 -130 3 -2 47 -34 99 -71 99 -72
312 -180 398 -203 29 -7 77 -20 107 -27 30 -8 60 -18 68 -22 13 -8 218 -26
308 -27 90 -1 256 15 300 28 119 37 185 55 200 55 9 0 62 23 118 50 56 28 105
50 108 50 11 0 199 127 213 143 9 12 2 21 -46 52 -32 21 -77 50 -100 66 -23
16 -45 29 -50 29 -5 0 -26 -14 -46 -31 -88 -72 -272 -151 -457 -196 -105 -25
-383 -25 -490 1 -194 47 -370 128 -490 225 -30 24 -29 24 -57 8z"/>
<path d="M8710 3590 c0 -5 7 -10 15 -10 8 0 15 5 15 10 0 6 -7 10 -15 10 -8 0
-15 -4 -15 -10z"/>
<path d="M9890 3590 c0 -5 6 -10 14 -10 8 0 18 5 21 10 3 6 -3 10 -14 10 -12
0 -21 -4 -21 -10z"/>
<path d="M9995 3590 c3 -5 17 -10 31 -10 13 0 24 5 24 10 0 6 -14 10 -31 10
-17 0 -28 -4 -24 -10z"/>
<path d="M10035 3499 c-4 -18 -3 -35 4 -42 8 -8 11 0 11 31 0 50 -6 54 -15 11z"/>
<path d="M8721 3474 c0 -11 3 -14 6 -6 3 7 2 16 -1 19 -3 4 -6 -2 -5 -13z"/>
<path d="M8718 3424 c-3 -3 -4 -14 -1 -25 5 -19 20 -19 616 -19 336 0 608 2
605 6 -3 3 -269 6 -591 7 -542 2 -586 3 -604 20 -11 9 -22 15 -25 11z"/>
<path d="M10010 3396 c-30 -8 -32 -10 -12 -14 34 -5 62 2 54 14 -5 7 -17 8
-42 0z"/>
<path d="M8927 3014 c-16 -16 7 -20 59 -12 32 5 64 6 71 4 28 -11 818 -7 821
4 4 11 -940 15 -951 4z"/>
<path d="M9862 2945 c0 -16 2 -22 5 -12 2 9 2 23 0 30 -3 6 -5 -1 -5 -18z"/>
<path d="M8930 2911 c0 -12 5 -21 10 -21 6 0 10 6 10 14 0 8 -4 18 -10 21 -5
3 -10 -3 -10 -14z"/>
<path d="M9860 2832 c0 -23 5 -42 10 -42 7 0 8 14 4 38 -9 51 -14 53 -14 4z"/>
<path d="M8930 2810 c0 -5 5 -10 11 -10 5 0 7 5 4 10 -3 6 -8 10 -11 10 -2 0
-4 -4 -4 -10z"/>
</g>
</svg>
